<svg width="636" height="637" viewBox="0 0 636 637" fill="none" xmlns="http://www.w3.org/2000/svg">
<path d="M636 487.178H0V487.496H636V487.178Z" fill="#EBEBEB"/>
<path d="M572.273 507.676H530.145V507.995H572.273V507.676Z" fill="#EBEBEB"/>
<path d="M421.312 511.141H410.259V511.46H421.312V511.141Z" fill="#EBEBEB"/>
<path d="M528.873 495.853H504.463V496.172H528.873V495.853Z" fill="#EBEBEB"/>
<path d="M121.667 497.994H66.7295V498.312H121.667V497.994Z" fill="#EBEBEB"/>
<path d="M141.052 497.994H133V498.312H141.052V497.994Z" fill="#EBEBEB"/>
<path d="M286.39 503.37H167.229V503.689H286.39V503.37Z" fill="#EBEBEB"/>
<path d="M301.464 430.357H55.8539C53.9298 430.354 52.0857 429.586 50.7263 428.222C49.367 426.858 48.6035 425.01 48.6035 423.083V77.2808C48.6203 75.3648 49.3911 73.5327 50.7487 72.1826C52.1062 70.8324 53.9408 70.0733 55.8539 70.07H301.464C303.391 70.07 305.238 70.8364 306.6 72.2007C307.962 73.5649 308.728 75.4152 308.728 77.3445V423.083C308.728 425.012 307.962 426.862 306.6 428.227C305.238 429.591 303.391 430.357 301.464 430.357ZM55.8539 70.3248C54.0142 70.3282 52.2509 71.0625 50.9512 72.3667C49.6515 73.6708 48.9215 75.4382 48.9215 77.2808V423.083C48.9215 424.925 49.6515 426.693 50.9512 427.997C52.2509 429.301 54.0142 430.035 55.8539 430.039H301.464C303.305 430.035 305.07 429.301 306.372 427.998C307.673 426.694 308.406 424.927 308.41 423.083V77.2808C308.406 75.437 307.673 73.6697 306.372 72.3659C305.07 71.0621 303.305 70.3282 301.464 70.3248H55.8539Z" fill="#EBEBEB"/>
<path d="M576.61 430.357H330.987C329.061 430.354 327.216 429.586 325.855 428.223C324.493 426.859 323.727 425.011 323.724 423.083V77.2808C323.744 75.3636 324.517 73.5316 325.877 72.1818C327.237 70.832 329.072 70.0733 330.987 70.07H576.61C578.521 70.0766 580.352 70.8373 581.707 72.187C583.062 73.5368 583.831 75.367 583.847 77.2808V423.083C583.848 425.008 583.086 426.854 581.729 428.218C580.373 429.581 578.532 430.35 576.61 430.357ZM330.987 70.3248C329.146 70.3282 327.381 71.0621 326.08 72.3659C324.778 73.6697 324.045 75.437 324.042 77.2808V423.083C324.045 424.927 324.778 426.694 326.08 427.998C327.381 429.301 329.146 430.035 330.987 430.039H576.61C578.451 430.035 580.215 429.301 581.517 427.998C582.819 426.694 583.552 424.927 583.555 423.083V77.2808C583.552 75.437 582.819 73.6697 581.517 72.3659C580.215 71.0621 578.451 70.3282 576.61 70.3248H330.987Z" fill="#EBEBEB"/>
<path d="M402.639 359.841H555.469C555.469 362.546 554.426 365.145 552.559 367.099C550.691 369.052 548.144 370.208 545.446 370.326C529.025 371.078 503.75 373.677 495.749 382.773C480.803 399.743 482.253 459.341 500.15 473.138C505.747 477.47 522.105 486.056 522.105 486.056H436.003C436.003 486.056 451.267 477.291 456.597 473.138C474.405 459.226 474.901 399.667 459.891 382.773C452.196 374.11 428.511 371.307 412.624 370.428C409.923 370.278 407.382 369.097 405.525 367.128C403.668 365.158 402.635 362.55 402.639 359.841Z" fill="#F5F5F5"/>
<path d="M536.529 370.887C521.011 372.161 502.414 375.206 495.749 382.773C493.573 385.388 491.853 388.351 490.661 391.538H465.03C463.823 388.359 462.104 385.398 459.942 382.773C453.252 375.244 434.502 372.148 419.238 370.887H536.529Z" fill="#E6E6E6"/>
<path d="M467.74 359.918L469.826 336.132H439.693L437.619 359.918H467.74Z" fill="#EBEBEB"/>
<path d="M467.74 359.918L469.826 336.132H471.442L469.368 359.918H467.74Z" fill="#E0E0E0"/>
<path d="M464.878 357.497L466.531 338.553H442.554L440.9 357.497H464.878Z" fill="#F0F0F0"/>
<path d="M463.047 355.93L464.42 340.12H444.399L443.013 355.93H463.047Z" fill="#FAFAFA"/>
<path d="M477.508 359.841H507.769L504.411 321.405H474.15L477.508 359.841Z" fill="#E6E6E6"/>
<path d="M477.508 359.841H476.071L472.713 321.405H474.15L477.508 359.841Z" fill="#E0E0E0"/>
<path d="M480.256 355.93H504.348L501.677 325.329H477.585L480.256 355.93Z" fill="#F0F0F0"/>
<path d="M482.012 353.408H502.148L499.909 327.851H479.786L482.012 353.408Z" fill="#FAFAFA"/>
<path d="M492.188 339.343C491.863 339.67 491.476 339.93 491.05 340.107C490.625 340.284 490.168 340.376 489.707 340.376C489.246 340.376 488.79 340.284 488.364 340.107C487.938 339.93 487.552 339.67 487.227 339.343C486.574 338.684 486.207 337.793 486.207 336.865C486.207 335.936 486.574 335.045 487.227 334.387C487.887 333.732 488.778 333.364 489.707 333.364C490.636 333.364 491.528 333.732 492.188 334.387C492.841 335.045 493.208 335.936 493.208 336.865C493.208 337.793 492.841 338.684 492.188 339.343Z" fill="#EBEBEB"/>
<path d="M490.699 343.649C490.936 343.408 491.218 343.217 491.529 343.086C491.84 342.956 492.174 342.889 492.512 342.889C492.849 342.889 493.183 342.956 493.494 343.086C493.805 343.217 494.088 343.408 494.324 343.649C494.692 344.004 494.945 344.461 495.049 344.962C495.154 345.462 495.106 345.983 494.911 346.456C494.716 346.929 494.383 347.332 493.957 347.613C493.53 347.894 493.029 348.04 492.518 348.031C492.006 348.042 491.503 347.898 491.074 347.618C490.646 347.338 490.311 346.935 490.115 346.462C489.918 345.989 489.869 345.467 489.973 344.965C490.077 344.463 490.33 344.004 490.699 343.649Z" fill="#F0F0F0"/>
<path d="M103.948 316.028H246.653L246.653 157.951L103.948 157.951L103.948 316.028Z" fill="#E0E0E0"/>
<path d="M99.3943 316.028H247.404L247.404 157.951L99.3943 157.951L99.3943 316.028Z" fill="#F0F0F0"/>
<path d="M105.665 308.754H241.388L241.388 162.983L105.665 162.983L105.665 308.754Z" fill="white"/>
<path d="M105.652 308.754H109.583L109.583 162.983H105.652L105.652 308.754Z" fill="#E0E0E0"/>
<path d="M109.163 267.808V271.744H241.731V267.808H109.163Z" fill="#E0E0E0"/>
<path d="M105.652 267.808H243.486V261.208H105.652V267.808Z" fill="#F0F0F0"/>
<path d="M481.311 185.01C481.311 185.01 482.583 176.602 476.465 171.213C470.347 165.824 470.881 162.613 472.649 162.193C474.417 161.773 476.007 167.174 478.704 168.652C478.704 168.652 478.793 161.008 476.058 158.142C473.323 155.275 471.886 148.026 474.494 147.95C477.101 147.873 477.356 152.281 477.903 155.441C478.449 158.6 481.337 163.085 481.337 163.085C481.337 163.085 481.897 156.205 483.665 153.377C485.433 150.549 480.726 144.077 482.545 141.248C484.364 138.42 487.633 143.796 487.315 149.873C486.997 155.95 483.016 162.41 483.957 168.741C483.957 168.741 485.738 164.295 487.328 163.887C488.918 163.48 490.546 160.55 491.615 159.454C492.683 158.358 494.044 162.142 491.615 165.646C489.185 169.149 483.016 178.526 483.983 186.093L481.311 185.01Z" fill="#E6E6E6"/>
<path d="M477.649 181.188L475.639 193.788C475.486 194.708 475.537 195.65 475.787 196.548C476.038 197.445 476.482 198.277 477.089 198.984C477.695 199.691 478.449 200.257 479.298 200.64C480.146 201.023 481.068 201.215 481.999 201.203H484.136C485.067 201.215 485.989 201.023 486.837 200.64C487.686 200.257 488.44 199.691 489.046 198.984C489.653 198.277 490.097 197.445 490.347 196.548C490.598 195.65 490.649 194.708 490.496 193.788L488.448 181.188H477.649Z" fill="#F5F5F5"/>
<path d="M507.961 196.553H366.26V203.84H507.961V196.553Z" fill="#E6E6E6"/>
<path d="M379.031 169.671H372.785V196.553H379.031V169.671Z" fill="#F0F0F0"/>
<path d="M409.215 169.671H402.97V196.553H409.215V169.671Z" fill="#F0F0F0"/>
<path d="M443.489 168.988L437.334 170.051L441.893 196.542L448.048 195.479L443.489 168.988Z" fill="#F0F0F0"/>
<path d="M386.764 173.213H380.519V196.553H386.764V173.213Z" fill="#F0F0F0"/>
<path d="M401.113 173.213H394.867V196.553H401.113V173.213Z" fill="#F0F0F0"/>
<path d="M437.339 173.213H431.094V196.553H437.339V173.213Z" fill="#F0F0F0"/>
<path d="M417.413 172.387L411.316 173.745L416.372 196.528L422.469 195.171L417.413 172.387Z" fill="#F0F0F0"/>
<path d="M392.157 168.334H389.041V196.553H392.157V168.334Z" fill="#F0F0F0"/>
<path d="M429.287 168.334H426.171V196.553H429.287V168.334Z" fill="#F0F0F0"/>
<path d="M366.272 258.278H507.973V250.991L366.272 250.991V258.278Z" fill="#E6E6E6"/>
<path d="M495.202 250.991H501.447V224.109H495.202V250.991Z" fill="#F0F0F0"/>
<path d="M465.018 250.991H471.264V224.109H465.018V250.991Z" fill="#F0F0F0"/>
<path d="M426.2 249.903L432.354 250.966L436.914 224.475L430.759 223.412L426.2 249.903Z" fill="#F0F0F0"/>
<path d="M487.468 250.991H493.714V227.651H487.468V250.991Z" fill="#F0F0F0"/>
<path d="M473.121 250.991H479.366V227.651H473.121V250.991Z" fill="#F0F0F0"/>
<path d="M436.894 250.991H443.14V227.651H436.894V250.991Z" fill="#F0F0F0"/>
<path d="M451.778 249.605L457.875 250.962L462.931 228.178L456.834 226.821L451.778 249.605Z" fill="#F0F0F0"/>
<path d="M482.076 250.991H485.192V222.772H482.076V250.991Z" fill="#F0F0F0"/>
<path d="M444.945 250.991H448.062V222.772H444.945V250.991Z" fill="#F0F0F0"/>
<path d="M379.87 250.749H410.283V229.715H379.87V250.749Z" fill="#F5F5F5"/>
<path d="M318 544.711C454.209 544.711 564.628 538.255 564.628 530.29C564.628 522.325 454.209 515.868 318 515.868C181.791 515.868 71.3721 522.325 71.3721 530.29C71.3721 538.255 181.791 544.711 318 544.711Z" fill="#F5F5F5"/>
<path d="M422.902 498.427C422.902 498.427 416.542 484.668 423.792 471.087C431.043 457.506 433.078 454.321 428.499 451.544C423.92 448.767 421.795 462.462 421.795 462.462C419.517 456.301 419.281 449.569 421.121 443.263C424.314 433.44 426.324 417.452 421.961 415.732C417.598 414.012 421.134 435.683 417.343 443.072C415.414 437.888 414.17 432.475 413.642 426.968C413.12 419.082 413.934 406.482 410.487 403.259C407.04 400.036 404.84 402.253 408.223 419.668C410.257 430.065 411.38 440.62 411.581 451.213C411.581 451.213 404.115 428.383 399.09 427.72C394.066 427.058 394.078 434.447 398.378 440.855C402.677 447.263 410.958 458.755 412.306 464.666C412.306 464.666 404.102 447.493 396.724 452.754C389.347 458.016 403.148 468.399 409.304 472.145C415.461 475.89 419.735 499.395 419.735 499.395L422.902 498.427Z" fill="#DE8E0E"/>
<path opacity="0.2" d="M422.902 498.427C422.902 498.427 416.542 484.668 423.792 471.087C431.043 457.506 433.078 454.321 428.499 451.544C423.92 448.767 421.795 462.462 421.795 462.462C419.517 456.301 419.281 449.569 421.121 443.263C424.314 433.44 426.324 417.452 421.961 415.732C417.598 414.012 421.134 435.683 417.343 443.072C415.414 437.888 414.17 432.475 413.642 426.968C413.12 419.082 413.934 406.482 410.487 403.259C407.04 400.036 404.84 402.253 408.223 419.668C410.257 430.065 411.38 440.62 411.581 451.213C411.581 451.213 404.115 428.383 399.09 427.72C394.066 427.058 394.078 434.447 398.378 440.855C402.677 447.263 410.958 458.755 412.306 464.666C412.306 464.666 404.102 447.493 396.724 452.754C389.347 458.016 403.148 468.399 409.304 472.145C415.461 475.89 419.735 499.395 419.735 499.395L422.902 498.427Z" fill="black"/>
<path d="M417.928 504.071C417.928 504.071 424.059 490.21 416.656 476.756C409.253 463.303 407.167 460.118 411.721 457.277C416.275 454.436 418.539 468.029 418.539 468.029C420.745 461.84 420.901 455.103 418.984 448.817C415.677 439.059 413.476 423.095 417.826 421.312C422.177 419.528 418.895 441.25 422.762 448.575C424.634 443.364 425.814 437.928 426.273 432.408C426.705 424.522 425.738 411.935 429.147 408.661C432.556 405.387 434.782 407.578 431.602 425.032C429.69 435.456 428.694 446.028 428.626 456.627C428.626 456.627 435.825 433.695 440.837 432.956C445.849 432.217 445.925 439.606 441.702 446.078C437.479 452.55 429.351 464.169 428.053 470.093C428.053 470.093 436.054 452.792 443.496 457.952C450.937 463.112 437.263 473.686 431.157 477.533C425.051 481.381 421.057 504.937 421.057 504.937L417.928 504.071Z" fill="#DE8E0E"/>
<path d="M446.218 494.198H395.541L399.65 530.519H442.122L446.218 494.198Z" fill="#263238"/>
<path opacity="0.2" d="M545.751 133.006H277.918C276.176 133.006 274.764 134.42 274.764 136.165V374.429C274.764 376.174 276.176 377.588 277.918 377.588H545.751C547.493 377.588 548.905 376.174 548.905 374.429V136.165C548.905 134.42 547.493 133.006 545.751 133.006Z" fill="black"/>
<path d="M535.385 128.483H267.553C265.811 128.483 264.398 129.897 264.398 131.642V369.906C264.398 371.651 265.811 373.065 267.553 373.065H535.385C537.128 373.065 538.54 371.651 538.54 369.906V131.642C538.54 129.897 537.128 128.483 535.385 128.483Z" fill="#DE8E0E"/>
<path opacity="0.6" d="M264.398 150.332V369.919C264.332 370.672 264.561 371.422 265.035 372.011C265.509 372.6 266.192 372.982 266.942 373.078H535.919C536.682 373.001 537.384 372.626 537.874 372.035C538.364 371.444 538.603 370.684 538.539 369.919V150.332H264.398Z" fill="white"/>
<path d="M535.283 163.212H267.642V357.204H535.283V163.212Z" fill="white"/>
<path opacity="0.6" d="M529.584 143.593C531.804 143.593 533.604 141.419 533.604 138.739C533.604 136.058 531.804 133.885 529.584 133.885C527.364 133.885 525.564 136.058 525.564 138.739C525.564 141.419 527.364 143.593 529.584 143.593Z" fill="white"/>
<path opacity="0.6" d="M516.419 143.593C518.639 143.593 520.438 141.419 520.438 138.739C520.438 136.058 518.639 133.885 516.419 133.885C514.199 133.885 512.399 136.058 512.399 138.739C512.399 141.419 514.199 143.593 516.419 143.593Z" fill="white"/>
<path opacity="0.6" d="M507.261 138.739C507.261 141.414 505.467 143.58 503.241 143.58C501.015 143.58 499.234 141.414 499.234 138.739C499.234 136.063 501.028 133.885 503.241 133.885C505.454 133.885 507.261 136.05 507.261 138.739Z" fill="white"/>
<path d="M324.665 185.864V235.894L311.818 251.411H283.363V185.864H324.665Z" fill="#DE8E0E"/>
<path opacity="0.7" d="M324.665 185.864V235.894L311.818 251.411H283.363V185.864H324.665Z" fill="white"/>
<path opacity="0.3" d="M324.666 235.894L311.818 251.411V235.894H324.666Z" fill="#DE8E0E"/>
<path opacity="0.3" d="M318.267 195.317H289.774V197.19H318.267V195.317Z" fill="#DE8E0E"/>
<path opacity="0.3" d="M318.267 202.426H289.774V204.299H318.267V202.426Z" fill="#DE8E0E"/>
<path opacity="0.3" d="M318.267 209.547H289.774V211.433H318.267V209.547Z" fill="#DE8E0E"/>
<path opacity="0.3" d="M318.267 216.669H289.774V218.542H318.267V216.669Z" fill="#DE8E0E"/>
<path opacity="0.3" d="M310.902 223.791H289.774V225.676H310.902V223.791Z" fill="#DE8E0E"/>
<path d="M390.173 185.864V235.894L377.326 251.411H348.871V185.864H390.173Z" fill="#DE8E0E"/>
<path opacity="0.7" d="M390.173 185.864V235.894L377.326 251.411H348.871V185.864H390.173Z" fill="white"/>
<path opacity="0.3" d="M390.173 235.894L377.326 251.411V235.894H390.173Z" fill="#DE8E0E"/>
<path opacity="0.3" d="M383.762 195.317H355.27V197.19H383.762V195.317Z" fill="#DE8E0E"/>
<path opacity="0.3" d="M383.762 202.426H355.27V204.299H383.762V202.426Z" fill="#DE8E0E"/>
<path opacity="0.3" d="M383.762 209.547H355.27V211.433H383.762V209.547Z" fill="#DE8E0E"/>
<path opacity="0.3" d="M383.762 216.669H355.27V218.542H383.762V216.669Z" fill="#DE8E0E"/>
<path opacity="0.3" d="M376.397 223.791H355.27V225.676H376.397V223.791Z" fill="#DE8E0E"/>
<path d="M455.681 185.864V235.894L442.834 251.411H414.379V185.864H455.681Z" fill="#DE8E0E"/>
<path opacity="0.7" d="M455.681 185.864V235.894L442.834 251.411H414.379V185.864H455.681Z" fill="white"/>
<path opacity="0.3" d="M455.681 235.894L442.834 251.411V235.894H455.681Z" fill="#DE8E0E"/>
<path opacity="0.3" d="M449.27 195.317H420.777V197.19H449.27V195.317Z" fill="#DE8E0E"/>
<path opacity="0.3" d="M449.27 202.426H420.777V204.299H449.27V202.426Z" fill="#DE8E0E"/>
<path opacity="0.3" d="M449.27 209.547H420.777V211.433H449.27V209.547Z" fill="#DE8E0E"/>
<path opacity="0.3" d="M449.27 216.669H420.777V218.542H449.27V216.669Z" fill="#DE8E0E"/>
<path opacity="0.3" d="M441.905 223.791H420.777V225.676H441.905V223.791Z" fill="#DE8E0E"/>
<path d="M521.19 185.864V235.894L508.33 251.411H479.888V185.864H521.19Z" fill="#DE8E0E"/>
<path opacity="0.7" d="M521.19 185.864V235.894L508.33 251.411H479.888V185.864H521.19Z" fill="white"/>
<path opacity="0.3" d="M521.189 235.894L508.329 251.411V235.894H521.189Z" fill="#DE8E0E"/>
<path opacity="0.3" d="M514.778 195.317H486.285V197.19H514.778V195.317Z" fill="#DE8E0E"/>
<path opacity="0.3" d="M514.778 202.426H486.285V204.299H514.778V202.426Z" fill="#DE8E0E"/>
<path opacity="0.3" d="M514.778 209.547H486.285V211.433H514.778V209.547Z" fill="#DE8E0E"/>
<path opacity="0.3" d="M514.778 216.669H486.285V218.542H514.778V216.669Z" fill="#DE8E0E"/>
<path opacity="0.3" d="M507.413 223.791H486.285V225.676H507.413V223.791Z" fill="#DE8E0E"/>
<path d="M324.665 272.496V322.526L311.818 338.043H283.363V272.496H324.665Z" fill="#DE8E0E"/>
<path opacity="0.7" d="M324.665 272.496V322.526L311.818 338.043H283.363V272.496H324.665Z" fill="white"/>
<path opacity="0.3" d="M324.666 322.526L311.818 338.043V322.526H324.666Z" fill="#DE8E0E"/>
<path opacity="0.3" d="M318.267 281.949H289.774V283.822H318.267V281.949Z" fill="#DE8E0E"/>
<path opacity="0.3" d="M318.267 289.058H289.774V290.931H318.267V289.058Z" fill="#DE8E0E"/>
<path opacity="0.3" d="M318.267 296.179H289.774V298.065H318.267V296.179Z" fill="#DE8E0E"/>
<path opacity="0.3" d="M318.267 303.301H289.774V305.187H318.267V303.301Z" fill="#DE8E0E"/>
<path opacity="0.3" d="M310.902 310.423H289.774V312.296H310.902V310.423Z" fill="#DE8E0E"/>
<path d="M390.173 272.496V322.526L377.326 338.043H348.871V272.496H390.173Z" fill="#DE8E0E"/>
<path opacity="0.7" d="M390.173 272.496V322.526L377.326 338.043H348.871V272.496H390.173Z" fill="white"/>
<path opacity="0.3" d="M390.173 322.526L377.326 338.043V322.526H390.173Z" fill="#DE8E0E"/>
<path opacity="0.3" d="M383.762 281.949H355.27V283.822H383.762V281.949Z" fill="#DE8E0E"/>
<path opacity="0.3" d="M383.762 289.058H355.27V290.931H383.762V289.058Z" fill="#DE8E0E"/>
<path opacity="0.3" d="M383.762 296.179H355.27V298.065H383.762V296.179Z" fill="#DE8E0E"/>
<path opacity="0.3" d="M383.762 303.301H355.27V305.187H383.762V303.301Z" fill="#DE8E0E"/>
<path opacity="0.3" d="M376.397 310.423H355.27V312.296H376.397V310.423Z" fill="#DE8E0E"/>
<path d="M455.681 272.496V322.526L442.834 338.043H414.379V272.496H455.681Z" fill="#DE8E0E"/>
<path opacity="0.7" d="M455.681 272.496V322.526L442.834 338.043H414.379V272.496H455.681Z" fill="white"/>
<path opacity="0.3" d="M455.681 322.526L442.834 338.043V322.526H455.681Z" fill="#DE8E0E"/>
<path opacity="0.3" d="M449.27 281.949H420.777V283.822H449.27V281.949Z" fill="#DE8E0E"/>
<path opacity="0.3" d="M449.27 289.058H420.777V290.931H449.27V289.058Z" fill="#DE8E0E"/>
<path opacity="0.3" d="M449.27 296.179H420.777V298.065H449.27V296.179Z" fill="#DE8E0E"/>
<path opacity="0.3" d="M449.27 303.301H420.777V305.187H449.27V303.301Z" fill="#DE8E0E"/>
<path opacity="0.3" d="M441.905 310.423H420.777V312.296H441.905V310.423Z" fill="#DE8E0E"/>
<path d="M521.19 272.496V322.526L508.33 338.043H479.888V272.496H521.19Z" fill="#DE8E0E"/>
<path opacity="0.7" d="M521.19 272.496V322.526L508.33 338.043H479.888V272.496H521.19Z" fill="white"/>
<path opacity="0.3" d="M521.189 322.526L508.329 338.043V322.526H521.189Z" fill="#DE8E0E"/>
<path opacity="0.3" d="M514.778 281.949H486.285V283.822H514.778V281.949Z" fill="#DE8E0E"/>
<path opacity="0.3" d="M514.778 289.058H486.285V290.931H514.778V289.058Z" fill="#DE8E0E"/>
<path opacity="0.3" d="M514.778 296.179H486.285V298.065H514.778V296.179Z" fill="#DE8E0E"/>
<path opacity="0.3" d="M514.778 303.301H486.285V305.187H514.778V303.301Z" fill="#DE8E0E"/>
<path opacity="0.3" d="M507.413 310.423H486.285V312.296H507.413V310.423Z" fill="#DE8E0E"/>
<path opacity="0.1" d="M419.709 231.04H353.781C350.725 231.04 348.248 233.521 348.248 236.582V286.064C348.248 289.125 350.725 291.606 353.781 291.606H419.709C422.765 291.606 425.242 289.125 425.242 286.064V236.582C425.242 233.521 422.765 231.04 419.709 231.04Z" fill="black"/>
<g opacity="0.1">
<path opacity="0.1" d="M414.99 228.224H407.358V219.956C407.358 214.732 405.286 209.723 401.598 206.029C397.91 202.335 392.908 200.26 387.693 200.26C382.477 200.26 377.475 202.335 373.787 206.029C370.099 209.723 368.028 214.732 368.028 219.956V228.224H360.396V219.956C360.396 212.705 363.271 205.751 368.391 200.624C373.51 195.496 380.453 192.616 387.693 192.616C394.932 192.616 401.875 195.496 406.995 200.624C412.114 205.751 414.99 212.705 414.99 219.956V228.224Z" fill="black"/>
</g>
<path d="M387.909 228.492H321.981C318.926 228.492 316.448 230.973 316.448 234.034V283.516C316.448 286.577 318.926 289.058 321.981 289.058H387.909C390.965 289.058 393.442 286.577 393.442 283.516V234.034C393.442 230.973 390.965 228.492 387.909 228.492Z" fill="#263238"/>
<path opacity="0.2" d="M373.981 228.492H321.981C318.926 228.492 316.448 230.973 316.448 234.034V283.516C316.448 286.577 318.926 289.058 321.981 289.058H373.981C377.037 289.058 379.514 286.577 379.514 283.516V234.034C379.514 230.973 377.037 228.492 373.981 228.492Z" fill="white"/>
<path d="M351.848 251.22C351.848 247.041 349.304 243.652 346.175 243.652C343.046 243.652 340.515 247.041 340.515 251.22C340.439 252.597 340.728 253.97 341.351 255.2C341.974 256.431 342.909 257.474 344.064 258.227L343.008 274.025H349.368L348.325 258.227C349.472 257.47 350.402 256.424 351.02 255.194C351.638 253.965 351.924 252.595 351.848 251.22Z" fill="#263238"/>
<path d="M383.19 225.676H375.558V217.408C375.558 212.184 373.486 207.175 369.798 203.481C366.11 199.787 361.108 197.712 355.893 197.712C350.677 197.712 345.675 199.787 341.987 203.481C338.3 207.175 336.228 212.184 336.228 217.408V225.676H328.596V217.408C328.596 210.157 331.472 203.203 336.591 198.076C341.71 192.948 348.653 190.068 355.893 190.068C363.132 190.068 370.076 192.948 375.195 198.076C380.314 203.203 383.19 210.157 383.19 217.408V225.676Z" fill="#263238"/>
<g opacity="0.4">
<path opacity="0.4" d="M383.19 225.676H375.558V217.408C375.558 212.184 373.486 207.175 369.798 203.481C366.11 199.787 361.108 197.712 355.893 197.712C350.677 197.712 345.675 199.787 341.987 203.481C338.3 207.175 336.228 212.184 336.228 217.408V225.676H328.596V217.408C328.596 210.157 331.472 203.203 336.591 198.076C341.71 192.948 348.653 190.068 355.893 190.068C363.132 190.068 370.076 192.948 375.195 198.076C380.314 203.203 383.19 210.157 383.19 217.408V225.676Z" fill="white"/>
</g>
<path opacity="0.2" d="M383.19 217.408V225.676H378.013V216.465C378.013 213.185 377.368 209.937 376.114 206.907C374.86 203.876 373.023 201.123 370.706 198.804C368.39 196.485 365.64 194.646 362.614 193.392C359.588 192.138 356.344 191.493 353.069 191.495C348.064 191.479 343.177 193.014 339.077 195.89C343.103 192.728 347.937 190.764 353.025 190.223C358.113 189.681 363.25 190.584 367.85 192.829C372.449 195.073 376.326 198.568 379.036 202.915C381.747 207.261 383.182 212.283 383.177 217.408H383.19Z" fill="white"/>
<path d="M275.337 363.893H244.504V362.708H251.462C251.93 362.703 252.381 362.535 252.739 362.233C253.097 361.931 253.338 361.513 253.421 361.052L256.537 342.477L257.148 338.82H267.705L277.156 361.141C277.285 361.442 277.337 361.77 277.307 362.096C277.278 362.422 277.168 362.735 276.988 363.008C276.807 363.281 276.562 363.505 276.274 363.659C275.986 363.813 275.664 363.894 275.337 363.893Z" fill="#DE8E0E"/>
<path opacity="0.4" d="M275.337 363.893H244.504V362.708H251.462C251.93 362.703 252.381 362.535 252.739 362.233C253.097 361.931 253.338 361.513 253.421 361.052L256.537 342.477L257.148 338.82H267.705L277.156 361.141C277.285 361.442 277.337 361.77 277.307 362.096C277.278 362.422 277.168 362.735 276.988 363.008C276.807 363.281 276.562 363.505 276.274 363.659C275.986 363.813 275.664 363.894 275.337 363.893Z" fill="white"/>
<path opacity="0.2" d="M275.375 362.708H251.461C251.929 362.703 252.381 362.535 252.738 362.233C253.096 361.931 253.337 361.513 253.42 361.052L256.536 342.477H267.603L276.023 361.727C276.07 361.834 276.089 361.951 276.079 362.068C276.069 362.184 276.03 362.297 275.965 362.394C275.901 362.492 275.813 362.571 275.71 362.626C275.607 362.681 275.491 362.709 275.375 362.708Z" fill="black"/>
<path d="M291.911 345.662H230.231C230.091 345.668 229.951 345.641 229.823 345.584C229.695 345.526 229.582 345.44 229.493 345.331C229.404 345.222 229.342 345.094 229.311 344.957C229.28 344.82 229.282 344.677 229.316 344.541L238.092 298.116C238.157 297.817 238.315 297.547 238.544 297.345C238.773 297.144 239.06 297.021 239.364 296.995H301.031C301.171 296.988 301.311 297.015 301.438 297.072C301.566 297.129 301.679 297.216 301.767 297.326C301.855 297.435 301.916 297.563 301.945 297.701C301.974 297.838 301.97 297.98 301.934 298.116L293.183 344.528C293.121 344.829 292.964 345.102 292.734 345.306C292.505 345.51 292.216 345.635 291.911 345.662Z" fill="#DE8E0E"/>
<path opacity="0.4" d="M291.911 345.662H230.231C230.091 345.668 229.951 345.641 229.823 345.584C229.695 345.526 229.582 345.44 229.493 345.331C229.404 345.222 229.342 345.094 229.311 344.957C229.28 344.82 229.282 344.677 229.316 344.541L238.092 298.116C238.157 297.817 238.315 297.547 238.544 297.345C238.773 297.144 239.06 297.021 239.364 296.995H301.031C301.171 296.988 301.311 297.015 301.438 297.072C301.566 297.129 301.679 297.216 301.767 297.326C301.855 297.435 301.916 297.563 301.945 297.701C301.974 297.838 301.97 297.98 301.934 298.116L293.183 344.528C293.121 344.829 292.964 345.102 292.734 345.306C292.505 345.51 292.216 345.635 291.911 345.662Z" fill="white"/>
<path d="M290.639 345.662H228.96C228.82 345.668 228.68 345.641 228.552 345.584C228.424 345.526 228.311 345.44 228.222 345.331C228.133 345.222 228.07 345.094 228.04 344.957C228.009 344.82 228.01 344.677 228.044 344.541L236.821 298.116C236.885 297.817 237.043 297.547 237.272 297.345C237.501 297.144 237.789 297.021 238.093 296.995H299.759C299.899 296.988 300.039 297.015 300.167 297.072C300.295 297.129 300.407 297.216 300.495 297.326C300.583 297.435 300.644 297.563 300.673 297.701C300.703 297.838 300.699 297.98 300.663 298.116L291.911 344.528C291.849 344.829 291.692 345.102 291.463 345.306C291.234 345.51 290.945 345.635 290.639 345.662Z" fill="#263238"/>
<path d="M289.824 342.808H230.854L238.97 299.861H297.927L289.824 342.808Z" fill="#DE8E0E"/>
<path d="M187.047 363.893V362.44L210.782 357.637H257.223C258.05 357.637 258.842 357.966 259.427 358.552C260.011 359.137 260.339 359.931 260.339 360.759C260.34 361.588 260.012 362.383 259.427 362.97C258.843 363.558 258.051 363.889 257.223 363.893H187.047Z" fill="#DE8E0E"/>
<path opacity="0.4" d="M260.34 360.771C260.341 361.597 260.017 362.389 259.436 362.975C258.848 363.561 258.053 363.89 257.223 363.893H187.047V362.453L210.795 357.637H257.223C257.633 357.637 258.04 357.718 258.419 357.876C258.798 358.034 259.142 358.265 259.431 358.556C259.721 358.847 259.95 359.193 260.106 359.573C260.262 359.953 260.341 360.36 260.34 360.771Z" fill="white"/>
<path opacity="0.4" d="M260.34 360.771C260.342 361.597 260.017 362.389 259.437 362.975C258.848 363.561 258.053 363.89 257.224 363.893H229.023V362.453L252.772 357.637H257.224C257.634 357.637 258.04 357.718 258.419 357.876C258.798 358.034 259.142 358.265 259.432 358.556C259.721 358.847 259.951 359.193 260.107 359.573C260.262 359.953 260.342 360.36 260.34 360.771Z" fill="white"/>
<path d="M277.309 530.519H283.669L295.078 371.346H286.645L277.309 530.519Z" fill="#263238"/>
<path opacity="0.1" d="M277.309 530.519H283.669L294.519 379.244L295.078 371.6H286.645L286.2 379.244L277.309 530.519Z" fill="white"/>
<path opacity="0.2" d="M286.2 378.862H294.519L295.079 371.6H286.645L286.2 378.862Z" fill="black"/>
<path d="M230.69 530.519H237.037L238.08 371.346H229.646L230.69 530.519Z" fill="#263238"/>
<path opacity="0.1" d="M229.646 371.6L229.812 397.284L230.677 530.519H237.037L237.902 397.284L238.067 371.6H229.646Z" fill="white"/>
<path opacity="0.2" d="M229.646 371.6L229.812 397.564H237.902L238.067 371.6H229.646Z" fill="black"/>
<path d="M163.235 530.519H169.583L181.005 371.346H172.572L163.235 530.519Z" fill="#263238"/>
<path opacity="0.1" d="M163.223 530.519H169.583L180.446 379.244L181.005 371.6H172.572L172.114 379.244L163.223 530.519Z" fill="white"/>
<path opacity="0.2" d="M172.114 378.862H180.446L181.006 371.6H172.572L172.114 378.862Z" fill="black"/>
<path d="M349.991 530.519H356.338L347.002 371.346H338.581L349.991 530.519Z" fill="#263238"/>
<path opacity="0.1" d="M338.581 371.6L339.141 379.244L349.991 530.519H356.338L347.46 379.244L347.002 371.6H338.581Z" fill="white"/>
<path opacity="0.2" d="M347.002 371.6H338.581L339.141 378.862H347.46L347.002 371.6Z" fill="black"/>
<path d="M350.931 375.32H168.641C168.28 375.32 167.923 375.249 167.589 375.111C167.256 374.973 166.953 374.77 166.698 374.514C166.443 374.259 166.241 373.955 166.103 373.622C165.964 373.288 165.893 372.93 165.893 372.568V367.345H353.679V372.568C353.679 372.93 353.608 373.288 353.47 373.622C353.331 373.955 353.129 374.259 352.874 374.514C352.619 374.77 352.316 374.973 351.983 375.111C351.649 375.249 351.292 375.32 350.931 375.32Z" fill="#DE8E0E"/>
<path opacity="0.4" d="M350.931 375.32H168.641C168.28 375.32 167.923 375.249 167.589 375.111C167.256 374.973 166.953 374.77 166.698 374.514C166.443 374.259 166.241 373.955 166.103 373.622C165.964 373.288 165.893 372.93 165.893 372.568V367.345H353.679V372.568C353.679 372.93 353.608 373.288 353.47 373.622C353.331 373.955 353.129 374.259 352.874 374.514C352.619 374.77 352.316 374.973 351.983 375.111C351.649 375.249 351.292 375.32 350.931 375.32Z" fill="white"/>
<path opacity="0.2" d="M165.882 371.333H353.68V367.345H165.882V371.333Z" fill="black"/>
<path d="M161.951 368.39H357.622C358.216 368.39 358.786 368.154 359.205 367.733C359.625 367.313 359.861 366.742 359.861 366.148C359.861 365.553 359.625 364.983 359.205 364.562C358.786 364.141 358.216 363.905 357.622 363.905H161.951C161.357 363.905 160.787 364.141 160.368 364.562C159.948 364.983 159.712 365.553 159.712 366.148C159.712 366.742 159.948 367.313 160.368 367.733C160.787 368.154 161.357 368.39 161.951 368.39Z" fill="#DE8E0E"/>
<path opacity="0.4" d="M161.951 368.39H357.622C358.216 368.39 358.786 368.154 359.205 367.733C359.625 367.313 359.861 366.742 359.861 366.148C359.861 365.553 359.625 364.983 359.205 364.562C358.786 364.141 358.216 363.905 357.622 363.905H161.951C161.357 363.905 160.787 364.141 160.368 364.562C159.948 364.983 159.712 365.553 159.712 366.148C159.712 366.742 159.948 367.313 160.368 367.733C160.787 368.154 161.357 368.39 161.951 368.39Z" fill="white"/>
<path opacity="0.3" d="M242.239 323.927C241.96 323.925 241.685 323.861 241.433 323.74C241.181 323.619 240.959 323.445 240.781 323.228C240.604 323.012 240.477 322.759 240.408 322.488C240.339 322.217 240.33 321.934 240.382 321.66L241.171 317.595C241.282 317.041 241.58 316.542 242.016 316.182C242.452 315.823 242.998 315.624 243.562 315.621H276.634C276.915 315.62 277.192 315.683 277.445 315.804C277.699 315.925 277.921 316.102 278.097 316.321C278.278 316.535 278.407 316.788 278.476 317.059C278.544 317.331 278.549 317.614 278.491 317.889L277.703 321.953C277.597 322.507 277.301 323.007 276.867 323.367C276.433 323.728 275.888 323.926 275.324 323.927H242.239Z" fill="white"/>
<path d="M275.325 323.29H242.253C242.065 323.293 241.878 323.254 241.707 323.177C241.535 323.099 241.383 322.984 241.262 322.84C241.14 322.696 241.052 322.527 241.003 322.345C240.954 322.163 240.947 321.972 240.981 321.787L241.782 317.71C241.859 317.301 242.077 316.931 242.398 316.666C242.718 316.401 243.122 316.256 243.537 316.258H276.609C276.798 316.255 276.984 316.293 277.156 316.371C277.327 316.449 277.479 316.564 277.601 316.708C277.722 316.852 277.811 317.021 277.859 317.203C277.908 317.385 277.915 317.576 277.881 317.761L277.093 321.838C277.013 322.248 276.793 322.618 276.47 322.883C276.147 323.148 275.742 323.292 275.325 323.29Z" fill="white"/>
<path d="M247.845 320.722C248.493 319.793 248.422 318.622 247.685 318.106C246.948 317.59 245.825 317.924 245.177 318.852C244.528 319.781 244.6 320.952 245.337 321.468C246.074 321.984 247.197 321.65 247.845 320.722Z" fill="#263238"/>
<path d="M253.42 319.774C253.33 320.283 253.073 320.748 252.691 321.096C252.31 321.444 251.823 321.655 251.309 321.698C251.081 321.691 250.858 321.631 250.657 321.523C250.456 321.415 250.282 321.262 250.151 321.075C250.019 320.889 249.932 320.674 249.897 320.448C249.861 320.223 249.879 319.992 249.948 319.774C250.041 319.266 250.298 318.802 250.679 318.455C251.061 318.107 251.546 317.895 252.059 317.85C252.288 317.855 252.513 317.913 252.716 318.02C252.918 318.127 253.092 318.281 253.225 318.468C253.357 318.655 253.444 318.871 253.478 319.098C253.512 319.325 253.492 319.556 253.42 319.774Z" fill="#263238"/>
<path d="M258.597 319.774C258.504 320.282 258.247 320.746 257.866 321.093C257.484 321.441 256.999 321.653 256.486 321.698C256.257 321.693 256.032 321.634 255.829 321.527C255.627 321.42 255.452 321.267 255.318 321.08C255.185 320.893 255.097 320.678 255.061 320.451C255.025 320.225 255.043 319.993 255.112 319.774C255.207 319.265 255.467 318.801 255.85 318.454C256.234 318.106 256.721 317.894 257.236 317.85C257.464 317.857 257.687 317.917 257.888 318.025C258.089 318.133 258.263 318.287 258.395 318.473C258.526 318.659 258.613 318.874 258.649 319.1C258.684 319.325 258.666 319.556 258.597 319.774Z" fill="#263238"/>
<path d="M263.367 320.712C264.015 319.784 263.943 318.613 263.206 318.097C262.469 317.581 261.346 317.915 260.698 318.843C260.05 319.771 260.122 320.942 260.859 321.458C261.596 321.975 262.718 321.64 263.367 320.712Z" fill="#263238"/>
<path d="M268.939 319.774C268.844 320.283 268.584 320.747 268.2 321.094C267.817 321.442 267.33 321.654 266.815 321.698C266.587 321.691 266.364 321.631 266.163 321.523C265.962 321.415 265.788 321.262 265.656 321.075C265.524 320.889 265.438 320.674 265.402 320.448C265.367 320.223 265.385 319.992 265.454 319.774C265.549 319.267 265.806 318.804 266.187 318.457C266.568 318.11 267.052 317.897 267.565 317.85C267.794 317.855 268.019 317.914 268.222 318.021C268.424 318.128 268.599 318.281 268.732 318.468C268.866 318.655 268.954 318.87 268.99 319.097C269.026 319.323 269.008 319.555 268.939 319.774Z" fill="#263238"/>
<path d="M273.701 320.733C274.349 319.804 274.277 318.633 273.54 318.117C272.803 317.601 271.68 317.935 271.032 318.863C270.384 319.792 270.456 320.963 271.193 321.479C271.929 321.995 273.052 321.661 273.701 320.733Z" fill="#263238"/>
<path opacity="0.3" d="M279.941 323.927C279.727 323.93 279.516 323.884 279.322 323.794C279.128 323.703 278.957 323.57 278.822 323.405C278.677 323.23 278.575 323.024 278.524 322.803C278.473 322.581 278.475 322.351 278.529 322.131L279.534 317.035C279.623 316.617 279.849 316.242 280.177 315.969C280.504 315.697 280.914 315.542 281.34 315.532H286.428C286.642 315.529 286.854 315.575 287.047 315.665C287.241 315.755 287.412 315.888 287.548 316.054C287.692 316.229 287.794 316.435 287.845 316.656C287.896 316.877 287.894 317.107 287.84 317.328L286.835 322.424C286.747 322.841 286.52 323.217 286.193 323.49C285.865 323.762 285.455 323.916 285.029 323.927H279.941Z" fill="white"/>
<path d="M279.942 323.29H285.03C285.303 323.276 285.564 323.174 285.775 323C285.986 322.826 286.135 322.588 286.2 322.322L287.205 317.226C287.237 317.107 287.241 316.982 287.215 316.861C287.19 316.74 287.137 316.627 287.061 316.53C286.984 316.434 286.886 316.356 286.774 316.305C286.662 316.253 286.54 316.228 286.416 316.232H281.328C281.05 316.245 280.783 316.349 280.569 316.529C280.356 316.708 280.207 316.953 280.146 317.226L279.141 322.322C279.113 322.441 279.113 322.564 279.141 322.682C279.169 322.801 279.224 322.911 279.302 323.005C279.379 323.099 279.477 323.173 279.588 323.223C279.7 323.272 279.821 323.295 279.942 323.29Z" fill="#263238"/>
<path d="M282.524 322.003C282.485 322.005 282.447 321.998 282.412 321.982C282.376 321.967 282.345 321.944 282.32 321.914C282.274 321.841 282.258 321.752 282.275 321.667C282.291 321.582 282.339 321.507 282.409 321.456L284.432 319.774L283.083 318.092C283.035 318.02 283.017 317.93 283.033 317.845C283.05 317.759 283.1 317.683 283.172 317.634C283.233 317.578 283.313 317.547 283.395 317.547C283.477 317.547 283.557 317.578 283.617 317.634L285.144 319.545C285.193 319.617 285.21 319.706 285.194 319.792C285.177 319.878 285.127 319.954 285.055 320.003L282.778 321.914C282.706 321.973 282.616 322.005 282.524 322.003Z" fill="#DE8E0E"/>
<path d="M284.813 320.092H281.379C281.339 320.094 281.3 320.086 281.264 320.069C281.228 320.053 281.197 320.028 281.172 319.997C281.147 319.966 281.13 319.93 281.122 319.891C281.114 319.852 281.114 319.812 281.124 319.774C281.144 319.686 281.192 319.607 281.261 319.55C281.33 319.492 281.416 319.459 281.506 319.455H284.928C284.967 319.454 285.006 319.462 285.042 319.479C285.078 319.495 285.11 319.52 285.134 319.551C285.159 319.582 285.176 319.618 285.185 319.657C285.193 319.695 285.192 319.736 285.182 319.774C285.163 319.86 285.117 319.937 285.05 319.995C284.984 320.052 284.901 320.086 284.813 320.092Z" fill="#DE8E0E"/>
<path d="M173.335 242.315H200.759C203.654 242.315 206 239.965 206 237.066V209.598C206 206.7 203.654 204.35 200.759 204.35H173.335C170.441 204.35 168.094 206.7 168.094 209.598V237.066C168.094 239.965 170.441 242.315 173.335 242.315Z" fill="#DE8E0E"/>
<path d="M184.084 240.888L187.048 253.653L190.012 240.888H184.084Z" fill="#DE8E0E"/>
<path opacity="0.3" d="M186.717 234.709C183.491 232.783 180.798 230.079 178.882 226.843C176.967 223.608 175.891 219.944 175.752 216.185V215.777L187.035 210.962L198.305 215.777V216.185C198.174 219.944 197.102 223.61 195.189 226.847C193.275 230.083 190.581 232.787 187.353 234.709L187.022 234.913L186.717 234.709Z" fill="white"/>
<path opacity="0.6" d="M187.048 211.662L197.695 216.198C197.578 219.85 196.541 223.414 194.679 226.557C192.818 229.7 190.193 232.32 187.048 234.174V211.662Z" fill="white"/>
<path opacity="0.4" d="M187.047 211.662L176.388 216.198C176.505 219.852 177.544 223.416 179.408 226.559C181.272 229.703 183.9 232.322 187.047 234.174V211.662Z" fill="white"/>
<path d="M176.808 355.586L185.712 356.924C187.733 356.28 189.812 355.832 191.919 355.586C194.205 355.398 196.502 355.398 198.788 355.586C198.788 355.586 202.82 357.102 202.82 360.962C202.82 360.962 193.42 363.51 189.82 361.969L176.808 360.962V355.586Z" fill="#E4897B"/>
<path opacity="0.2" d="M176.808 355.586L185.712 356.924C187.733 356.28 189.812 355.832 191.919 355.586C194.205 355.398 196.502 355.398 198.788 355.586C198.788 355.586 202.82 357.102 202.82 360.962C202.82 360.962 193.42 363.51 189.82 361.969L176.808 360.962V355.586Z" fill="black"/>
<path d="M198.864 295.364C199.003 297.197 199.362 299.006 199.933 300.753C199.466 301.041 198.929 301.193 198.381 301.193C197.833 301.193 197.296 301.041 196.829 300.753L198.864 295.364Z" fill="#AA473D"/>
<path d="M202.336 292.816C201.993 293.644 201.382 294.179 200.963 294.001C200.543 293.823 200.505 293.033 200.836 292.205C201.166 291.377 201.789 290.854 202.209 291.02C202.629 291.185 202.667 292.001 202.336 292.816Z" fill="#263238"/>
<path d="M204.423 289.963C204.348 289.985 204.269 289.985 204.194 289.963C203.518 289.564 202.761 289.323 201.98 289.257C201.198 289.191 200.412 289.302 199.678 289.58C199.569 289.636 199.441 289.646 199.325 289.608C199.208 289.569 199.111 289.486 199.055 289.376C198.999 289.267 198.99 289.139 199.028 289.022C199.066 288.905 199.149 288.808 199.259 288.752C200.13 288.397 201.073 288.249 202.011 288.322C202.95 288.395 203.858 288.686 204.665 289.173C204.717 289.204 204.762 289.245 204.798 289.295C204.834 289.344 204.86 289.4 204.875 289.459C204.889 289.518 204.891 289.58 204.881 289.64C204.871 289.7 204.85 289.758 204.817 289.81C204.77 289.867 204.709 289.911 204.64 289.938C204.571 289.964 204.496 289.973 204.423 289.963Z" fill="#263238"/>
<path d="M196.384 302.295C196.091 302.651 195.799 302.995 195.481 303.314C193.699 305.168 191.397 306.434 188.879 306.945C188.241 307.074 187.595 307.16 186.946 307.2C185.235 307.307 183.522 307.031 181.931 306.392C180.34 305.753 178.912 304.766 177.749 303.505C176.7 302.364 175.895 301.02 175.383 299.556C173.106 293.44 175.383 288.625 178.678 280.153C179.41 278.167 180.637 276.401 182.241 275.023C183.846 273.644 185.775 272.699 187.847 272.277C189.918 271.855 192.063 271.969 194.078 272.609C196.093 273.25 197.911 274.395 199.36 275.936C205.949 282.892 201.523 295.67 196.384 302.295Z" fill="#E4897B"/>
<path opacity="0.2" d="M188.879 306.945C188.241 307.074 187.595 307.16 186.946 307.2C185.235 307.307 183.522 307.031 181.931 306.392C180.34 305.753 178.912 304.766 177.749 303.505C178.566 302.682 179.485 301.967 180.484 301.377C183.759 302.386 186.674 304.319 188.879 306.945Z" fill="black"/>
<path d="M161.454 307.263C162.294 313.226 175.319 315.455 175.319 315.455C175.319 315.455 181.679 318.385 182.01 315.837C179.351 312.754 179.059 310.066 179.974 307.709C180.582 306.272 181.473 304.972 182.595 303.887C183.192 303.265 183.825 302.678 184.49 302.129L180.509 285.796C177.647 292.039 167.903 306.372 161.454 307.263Z" fill="#E4897B"/>
<path d="M198.622 271.362C198.622 271.362 201.408 271.018 203.545 276.216C205.339 280.586 201.103 281.541 201.294 286.191C201.484 290.842 197.223 293.428 197.223 293.428C197.223 293.428 193.662 296.511 190.622 294.842C190.622 294.842 186.653 296.791 185.61 300.193C184.567 303.594 178.423 297.454 172.89 298.384C172.89 298.384 169.15 294.88 169.43 286.37C169.642 282.674 170.548 279.052 172.101 275.694C172.835 273.915 173.914 272.301 175.277 270.945C176.64 269.589 178.258 268.518 180.038 267.795C186.36 264.916 197.439 267.056 198.622 271.362Z" fill="#263238"/>
<path d="M189.858 292.281C189.666 293.129 189.664 294.009 189.854 294.857C190.043 295.705 190.418 296.501 190.952 297.186C192.301 298.664 194.476 296.791 195.353 294.205C196.117 291.899 196.384 288.294 194.399 287.835C192.415 287.376 190.278 289.797 189.858 292.281Z" fill="#E4897B"/>
<path d="M191.257 312.194C189.434 317.29 187.806 322.174 186.373 326.845C185.457 329.75 184.617 332.591 183.829 335.33C183.184 337.631 182.582 339.865 182.022 342.031C181.755 343.076 181.488 344.108 181.234 345.127C179.835 350.745 178.69 355.867 177.812 360.415C176.33 367.514 175.23 374.689 174.518 381.907L124.655 375.614C126.385 367.027 127.734 359.523 129.616 351.408C130.659 346.974 131.842 342.362 133.432 337.304C134.501 333.673 135.747 329.813 137.248 325.622C142.26 311.226 146.877 307.238 146.877 307.238C165.944 304.18 191.257 312.194 191.257 312.194Z" fill="#263238"/>
<path d="M207.857 356.516L216.761 357.854C218.783 357.21 220.862 356.762 222.969 356.516C225.259 356.328 227.56 356.328 229.85 356.516C229.85 356.516 233.87 358.032 233.87 361.892C233.87 361.892 224.482 364.44 220.87 362.899L207.87 361.892L207.857 356.516Z" fill="#E4897B"/>
<path d="M152.741 521.206L162.04 521.372L166.67 499.905L157.384 499.739L152.741 521.206Z" fill="#EBB376"/>
<path opacity="0.2" d="M157.384 499.739L166.669 499.918L164.024 512.186L154.827 511.575L157.384 499.739Z" fill="black"/>
<path d="M182.621 468.641C179.078 482.303 174.55 495.69 169.074 508.696L152.118 507.422C152.118 507.422 159.076 480.196 161.594 455.251C163.159 439.861 163.019 427.121 158.516 426.14C155.692 425.516 149.065 425.529 140.568 425.733V394.01C164.393 398.915 188.103 408.151 189.909 415.566C192.428 426 188.027 448.091 182.621 468.641Z" fill="#DE8E0E"/>
<path d="M150.312 508.186L170.511 509.536L173.487 500.784L151.227 499.752L150.312 508.186Z" fill="#DE8E0E"/>
<path opacity="0.2" d="M150.312 508.186L170.511 509.536L173.487 500.784L151.227 499.752L150.312 508.186Z" fill="white"/>
<path d="M163.439 520.913H163.629C163.629 520.913 163.846 520.977 163.871 521.003C163.896 521.028 163.871 521.003 163.871 521.003H163.947C164.733 521.252 165.543 521.414 166.364 521.487C166.976 521.601 167.608 521.478 168.132 521.143C168.299 520.997 168.42 520.807 168.48 520.595C168.541 520.382 168.54 520.157 168.476 519.945C168.455 519.807 168.402 519.675 168.32 519.562C168.238 519.449 168.13 519.358 168.005 519.295C167.127 519.155 166.227 519.326 165.461 519.779C166.008 519.201 166.333 518.447 166.377 517.652C166.339 517.464 166.242 517.293 166.1 517.164C165.958 517.036 165.779 516.957 165.588 516.938C165.226 516.885 164.858 516.971 164.558 517.18C163.578 518.021 163.426 520.659 163.426 520.811L163.439 520.913ZM164.443 520.378L164.253 520.48C164.192 519.473 164.465 518.475 165.029 517.639C165.09 517.577 165.163 517.53 165.245 517.499C165.326 517.468 165.413 517.455 165.499 517.461H165.614C165.919 517.461 165.983 517.664 165.995 517.792C165.799 518.81 165.249 519.727 164.443 520.378ZM164.571 520.837C165.69 520.213 167.28 519.563 167.878 519.805C167.937 519.836 167.988 519.881 168.026 519.937C168.064 519.993 168.087 520.057 168.094 520.123C168.132 520.257 168.132 520.399 168.097 520.534C168.061 520.668 167.99 520.79 167.891 520.888C167.433 521.296 166.211 521.27 164.571 520.837Z" fill="#DE8E0E"/>
<path d="M163.222 519.792L152.805 519.142C152.631 519.124 152.457 519.176 152.322 519.286C152.186 519.396 152.099 519.555 152.08 519.728L151.062 527.946C151.034 528.378 151.177 528.803 151.461 529.13C151.744 529.457 152.145 529.658 152.576 529.691C156.214 529.857 157.956 529.755 162.535 530.01C166.6 530.428 170.689 530.556 174.772 530.392C178.588 530.022 178.168 526.188 176.502 526.009C172.521 525.551 167.267 522.633 164.774 520.416C164.342 520.039 163.795 519.819 163.222 519.792Z" fill="#263238"/>
<path opacity="0.2" d="M182.621 468.641C176.261 464.628 168.87 459.901 161.594 455.226C163.159 439.836 163.019 427.096 158.516 426.115C155.692 425.491 149.065 425.503 140.568 425.707V394.01C164.393 398.915 188.103 408.151 189.909 415.566C192.428 426 188.027 448.091 182.621 468.641Z" fill="black"/>
<path d="M207.094 521.206L216.392 521.372L221.022 499.905L211.737 499.739L207.094 521.206Z" fill="#EBB376"/>
<path opacity="0.2" d="M211.737 499.739L221.023 499.918L218.377 512.186L209.181 511.575L211.737 499.739Z" fill="black"/>
<path d="M173.335 390.901L174.836 378.875L126.284 370.861C126.284 370.861 110.396 402.38 118.168 417.872C125.304 432.039 201.192 423.592 212.869 426.153C224.546 428.714 206.509 507.447 206.509 507.447L223.477 508.721C223.477 508.721 249.68 437.887 244.3 415.604C241.908 405.858 201.904 392.978 173.335 390.901Z" fill="#DE8E0E"/>
<path d="M204.665 508.186L224.864 509.536L227.841 500.784L205.581 499.752L204.665 508.186Z" fill="#DE8E0E"/>
<path opacity="0.2" d="M204.665 508.186L224.864 509.536L227.841 500.784L205.581 499.752L204.665 508.186Z" fill="white"/>
<path d="M217.791 520.913H217.982C217.982 520.913 218.198 520.977 218.224 521.003C218.249 521.028 218.224 521.003 218.224 521.003H218.3C219.085 521.252 219.896 521.414 220.717 521.487C221.328 521.601 221.96 521.478 222.485 521.143C222.651 520.997 222.772 520.807 222.833 520.595C222.894 520.382 222.892 520.157 222.828 519.945C222.808 519.807 222.755 519.675 222.673 519.562C222.591 519.449 222.483 519.358 222.358 519.295C221.479 519.155 220.579 519.326 219.814 519.779C220.361 519.201 220.685 518.447 220.729 517.652C220.692 517.464 220.595 517.293 220.453 517.164C220.311 517.036 220.131 516.957 219.941 516.938C219.579 516.885 219.211 516.971 218.91 517.18C217.931 518.021 217.778 520.659 217.778 520.811L217.791 520.913ZM218.796 520.378L218.605 520.48C218.545 519.473 218.818 518.475 219.381 517.639C219.442 517.577 219.516 517.53 219.597 517.499C219.678 517.468 219.765 517.455 219.852 517.461H219.966C220.271 517.461 220.335 517.664 220.348 517.792C220.153 518.814 219.598 519.732 218.783 520.378H218.796ZM218.923 520.837C220.042 520.213 221.633 519.563 222.23 519.805C222.29 519.836 222.341 519.881 222.378 519.937C222.416 519.993 222.44 520.057 222.447 520.123C222.484 520.257 222.485 520.399 222.449 520.534C222.413 520.668 222.342 520.79 222.243 520.888C221.785 521.296 220.564 521.27 218.923 520.837Z" fill="#DE8E0E"/>
<path d="M217.575 519.792L207.157 519.142C206.984 519.124 206.81 519.176 206.674 519.286C206.538 519.396 206.451 519.555 206.432 519.728L205.415 527.946C205.387 528.378 205.53 528.803 205.813 529.13C206.097 529.457 206.497 529.658 206.928 529.691C210.566 529.857 212.309 529.755 216.888 530.01C220.953 530.428 225.042 530.556 229.125 530.392C233.004 530.022 232.534 526.188 230.855 526.009C226.873 525.551 221.62 522.633 219.127 520.416C218.694 520.039 218.148 519.819 217.575 519.792Z" fill="#263238"/>
<path d="M124.503 376.34L146.992 379.295L147.73 375.97L125.19 372.683L124.503 376.34Z" fill="black"/>
<path d="M149.599 375.996L149.319 379.295L170.117 382.162V378.888L149.599 375.996Z" fill="black"/>
<path d="M171.401 379.079V382.162L174.429 382.557V379.576L171.401 379.079Z" fill="black"/>
<path opacity="0.2" d="M186.373 326.845C185.457 329.749 184.617 332.59 183.829 335.329C183.184 337.631 182.582 339.865 182.023 342.031C180.458 333.495 183.295 323.303 183.295 323.303L186.373 326.845Z" fill="black"/>
<path d="M191.257 312.13C195.315 312.958 196.651 344.541 196.829 347.904C197.007 351.267 216.748 357.803 216.748 357.803V362.402C216.748 362.402 195.582 360.924 190.634 358.898C185.686 356.873 184.439 327.622 184.439 327.622L191.257 312.13Z" fill="#E4897B"/>
<path d="M191.257 312.13C194.984 313.289 196.828 334.119 196.828 334.119L185.304 338.884L182.442 327.303C182.442 327.303 181.628 324.946 183.231 319.978C185.559 312.729 191.257 312.13 191.257 312.13Z" fill="#263238"/>
<path d="M105.296 415.987H197.16C199.828 415.987 202.387 417.048 204.274 418.938C206.161 420.828 207.221 423.391 207.221 426.064V431.453H95.2344V426.064C95.2344 423.391 96.2944 420.828 98.1813 418.938C100.068 417.048 102.627 415.987 105.296 415.987Z" fill="#DE8E0E"/>
<path d="M135.175 377.677H196.854C197.597 377.677 198.331 377.845 199.001 378.169C199.67 378.492 200.258 378.963 200.72 379.546C201.183 380.129 201.508 380.81 201.671 381.536C201.834 382.262 201.831 383.016 201.662 383.742L190.634 431.453H188.09L197.477 389.64C197.642 388.917 197.641 388.167 197.476 387.444C197.311 386.722 196.985 386.046 196.523 385.467C196.061 384.887 195.475 384.42 194.808 384.099C194.14 383.779 193.409 383.613 192.669 383.614H136.434L135.175 377.677Z" fill="#263238"/>
<path d="M158.528 433.16V473.482C158.528 474.104 158.282 474.7 157.843 475.14C157.404 475.579 156.809 475.826 156.188 475.826H146.279C145.658 475.826 145.063 475.579 144.624 475.14C144.185 474.7 143.938 474.104 143.938 473.482V433.16H158.528Z" fill="#263238"/>
<path d="M104.036 526.239C104.036 525.392 103.785 524.564 103.316 523.86C102.846 523.156 102.179 522.608 101.398 522.284C100.617 521.96 99.7575 521.875 98.9284 522.04C98.0993 522.205 97.3378 522.613 96.7401 523.212C96.1424 523.81 95.7353 524.573 95.5704 525.403C95.4055 526.234 95.4901 527.095 95.8136 527.877C96.1371 528.659 96.6849 529.327 97.3877 529.798C98.0906 530.268 98.9169 530.519 99.7622 530.519C100.896 530.519 101.983 530.068 102.784 529.265C103.586 528.463 104.036 527.374 104.036 526.239Z" fill="#263238"/>
<path opacity="0.2" d="M101.9 526.238C101.9 525.815 101.775 525.401 101.54 525.049C101.305 524.697 100.971 524.423 100.581 524.261C100.19 524.099 99.7606 524.057 99.346 524.139C98.9315 524.222 98.5507 524.426 98.2519 524.725C97.953 525.024 97.7495 525.406 97.667 525.821C97.5846 526.236 97.6269 526.666 97.7886 527.057C97.9504 527.449 98.2243 527.783 98.5757 528.018C98.9271 528.253 99.3403 528.379 99.7629 528.379C100.329 528.375 100.87 528.149 101.27 527.748C101.67 527.347 101.897 526.805 101.9 526.238Z" fill="white"/>
<path d="M207.005 526.239C207.007 525.388 206.758 524.556 206.288 523.848C205.818 523.14 205.148 522.588 204.365 522.262C203.581 521.935 202.718 521.849 201.885 522.014C201.052 522.18 200.287 522.589 199.687 523.19C199.087 523.791 198.678 524.557 198.513 525.391C198.348 526.225 198.434 527.09 198.76 527.875C199.086 528.66 199.638 529.33 200.345 529.801C201.052 530.272 201.882 530.522 202.731 530.519C203.863 530.516 204.949 530.064 205.749 529.262C206.55 528.46 207.002 527.373 207.005 526.239Z" fill="#263238"/>
<path opacity="0.2" d="M204.868 526.238C204.868 525.815 204.742 525.401 204.508 525.049C204.273 524.697 203.939 524.423 203.548 524.261C203.158 524.099 202.728 524.057 202.314 524.139C201.899 524.222 201.519 524.426 201.22 524.725C200.921 525.024 200.717 525.406 200.635 525.821C200.552 526.236 200.595 526.666 200.756 527.057C200.918 527.449 201.192 527.783 201.543 528.018C201.895 528.253 202.308 528.379 202.731 528.379C203.296 528.375 203.838 528.149 204.238 527.748C204.638 527.347 204.864 526.805 204.868 526.238Z" fill="white"/>
<path d="M154.776 507.434V461.341H147.704V507.434C120.153 508.148 103.4 517.792 100.055 519.907C99.8574 520.024 99.6952 520.192 99.5855 520.394C99.4758 520.596 99.4226 520.824 99.4317 521.053V524.875C99.43 525.054 99.4636 525.231 99.5306 525.396C99.5976 525.561 99.6967 525.712 99.822 525.839C99.9474 525.965 100.097 526.066 100.261 526.135C100.425 526.203 100.602 526.239 100.78 526.239C101.018 526.236 101.251 526.172 101.457 526.051C101.662 525.93 101.832 525.758 101.95 525.551L103.591 522.671C117.866 518.112 132.724 515.649 147.704 515.359V523.003C147.704 523.233 147.75 523.461 147.838 523.674C147.926 523.886 148.056 524.079 148.219 524.241C148.382 524.404 148.576 524.532 148.789 524.619C149.002 524.706 149.23 524.75 149.459 524.748H153.034C153.496 524.748 153.939 524.564 154.266 524.237C154.593 523.909 154.776 523.466 154.776 523.003V515.359C169.76 515.648 184.623 518.111 198.902 522.671L200.53 525.551C200.649 525.76 200.821 525.933 201.029 526.054C201.237 526.175 201.473 526.239 201.713 526.239C202.072 526.235 202.415 526.09 202.667 525.835C202.92 525.58 203.062 525.235 203.062 524.875V521.053C203.071 520.824 203.017 520.596 202.908 520.394C202.798 520.192 202.636 520.024 202.438 519.907C199.08 517.792 182.341 508.148 154.776 507.434Z" fill="#263238"/>
<path d="M153.569 521.945H148.926V530.519H153.569V521.945Z" fill="#263238"/>
<path opacity="0.2" d="M158.528 433.122H143.977V449.875H158.528V433.122Z" fill="black"/>
<path d="M210.324 428.969V433.784C210.324 434.108 210.26 434.429 210.136 434.728C210.012 435.027 209.83 435.299 209.6 435.527C209.371 435.756 209.099 435.937 208.8 436.06C208.5 436.182 208.18 436.245 207.856 436.243H94.6484C94.3255 436.245 94.0055 436.182 93.7069 436.059C93.4083 435.936 93.137 435.755 92.9087 435.527C92.6804 435.298 92.4996 435.026 92.3768 434.727C92.2541 434.428 92.1917 434.108 92.1934 433.784V428.969C92.1934 428.316 92.452 427.691 92.9124 427.23C93.3728 426.769 93.9973 426.51 94.6484 426.51H207.856C208.509 426.51 209.134 426.768 209.597 427.229C210.059 427.69 210.321 428.315 210.324 428.969Z" fill="#263238"/>
<path d="M158.236 431.453H92.1813C92.1813 431.453 71.2314 396.494 71.2314 338.731V317.519C71.2348 313.331 72.8981 309.317 75.8557 306.357C78.8133 303.397 82.8232 301.734 87.0042 301.734H114.988C119.084 301.732 123.019 303.327 125.961 306.18C128.902 309.034 130.619 312.922 130.748 317.022C131.55 346.834 135.925 411.285 158.236 431.453Z" fill="#263238"/>
<path opacity="0.2" d="M143.735 431.453H95.1578C94.2393 431.457 93.3376 431.207 92.552 430.73C91.7664 430.254 91.1275 429.569 90.7058 428.752C85.923 419.528 71.2314 387.13 71.2314 338.731V317.519C71.2314 313.333 72.8919 309.318 75.8475 306.357C78.8031 303.397 82.8117 301.734 86.9915 301.734H111.16C115.255 301.732 119.19 303.327 122.132 306.18C125.074 309.034 126.791 312.923 126.92 317.022C127.645 343.611 131.206 397.896 147.869 423.541C148.373 424.302 148.663 425.183 148.71 426.094C148.758 427.006 148.56 427.913 148.137 428.721C147.715 429.529 147.084 430.209 146.309 430.69C145.535 431.17 144.646 431.434 143.735 431.453Z" fill="white"/>
<path opacity="0.2" d="M210.325 428.969V433.784C210.325 434.436 210.066 435.062 209.605 435.523C209.145 435.984 208.521 436.243 207.87 436.243H157.129C156.694 436.245 156.263 436.16 155.86 435.995C155.457 435.829 155.091 435.585 154.783 435.277C154.474 434.97 154.23 434.604 154.063 434.201C153.896 433.799 153.81 433.367 153.81 432.931V429.835C153.81 428.953 154.159 428.107 154.782 427.484C155.405 426.86 156.249 426.51 157.129 426.51H207.857C208.509 426.51 209.135 426.768 209.597 427.229C210.06 427.69 210.321 428.315 210.325 428.969Z" fill="black"/>
<path d="M92.1553 299.861L96.3529 294.358C96.3529 294.358 114.275 295.173 114.708 301.734C115.14 308.295 92.1553 299.861 92.1553 299.861Z" fill="#DE8E0E"/>
<path d="M80.3774 316.334C80.3774 316.334 81.4713 345.509 80.3774 420.802C80.3774 423.35 70.8883 423.248 70.2014 420.802C67.9245 412.228 70.2014 343.763 70.2014 343.763" fill="#DE8E0E"/>
<path d="M70.417 421.185L80.0715 421.516V426.344L70.417 425.847V421.185Z" fill="#DE8E0E"/>
<path opacity="0.2" d="M80.3774 316.334C80.3774 316.334 81.4713 345.509 80.3774 420.802C80.3774 423.35 70.8883 423.248 70.2014 420.802C67.9245 412.228 70.2014 343.763 70.2014 343.763" fill="white"/>
<path d="M65.6474 405.412C65.1259 391.526 63.2306 327.698 71.1933 306.55C71.1933 306.55 78.6854 297.02 104.036 297.02C129.387 297.02 137.019 315.047 137.019 315.047C137.019 315.047 138.113 344.209 137.019 419.515C137.019 422.063 127.53 421.974 126.843 419.515C124.566 410.954 126.843 342.477 126.843 342.477L121.755 404.775C121.737 404.984 121.676 405.187 121.576 405.372C121.477 405.556 121.341 405.718 121.176 405.848C121.012 405.978 120.823 406.073 120.621 406.128C120.418 406.182 120.207 406.194 120 406.164C111.999 404.89 76.752 399.934 67.4282 406.304C67.2593 406.413 67.065 406.476 66.8644 406.487C66.6639 406.498 66.4639 406.456 66.2843 406.366C66.1046 406.276 65.9514 406.141 65.8398 405.974C65.7281 405.806 65.6618 405.613 65.6474 405.412Z" fill="#DE8E0E"/>
<path d="M127.06 419.898L136.714 420.229V425.057L127.06 424.561V419.898Z" fill="#DE8E0E"/>
<path d="M120.521 406.228L119.758 411.324C119.758 411.324 80.4149 402.737 67.6695 411.884L66.9062 406.24C66.9062 406.24 76.7515 397.144 120.521 406.228Z" fill="#DE8E0E"/>
<path opacity="0.4" d="M65.6474 405.412C65.1259 391.526 63.2306 327.698 71.1933 306.55C71.1933 306.55 78.6854 297.02 104.036 297.02C129.387 297.02 137.019 315.047 137.019 315.047C137.019 315.047 138.113 344.209 137.019 419.515C137.019 422.063 127.53 421.974 126.843 419.515C124.566 410.954 126.843 342.477 126.843 342.477L121.755 404.775C121.737 404.984 121.676 405.187 121.576 405.372C121.477 405.556 121.341 405.718 121.176 405.848C121.012 405.978 120.823 406.073 120.621 406.128C120.418 406.182 120.207 406.194 120 406.164C111.999 404.89 76.752 399.934 67.4282 406.304C67.2593 406.413 67.065 406.476 66.8644 406.487C66.6639 406.498 66.4639 406.456 66.2843 406.366C66.1046 406.276 65.9514 406.141 65.8398 405.974C65.7281 405.806 65.6618 405.613 65.6474 405.412Z" fill="white"/>
<path opacity="0.2" d="M126.881 342.477C126.881 342.477 127.441 322.704 137.057 315.047C137.019 315.047 125.037 320.207 126.881 342.477Z" fill="black"/>
<path opacity="0.2" d="M98.032 299.301C98.032 299.301 86.4568 305.671 84.6124 392.469C84.6124 392.469 79.5753 304.907 98.032 299.301Z" fill="black"/>
</svg>
